<svg width="29" height="29" viewBox="0 0 29 29" fill="none" xmlns="http://www.w3.org/2000/svg">
<path d="M29 14.5C29 6.49254 22.5075 0 14.5 0C6.49254 0 0 6.49254 0 14.5C0 22.5075 6.49254 29 14.5 29C22.5075 29 29 22.5075 29 14.5Z" fill="white"/>
<path d="M17.8371 23.5625C17.9821 23.5625 18.1271 23.5264 18.2721 23.4543C18.8159 23.2018 19.0334 22.5885 18.7796 22.0474C18.7796 22.0474 16.7859 17.502 16.4234 15.8426C16.2784 15.2655 16.2059 13.7143 16.1696 12.9928C16.1696 12.7403 16.3146 12.5238 16.5321 12.4517L20.9909 11.1169C21.5346 10.9726 21.8609 10.3594 21.7159 9.81826C21.5709 9.27715 20.9546 8.95248 20.4109 9.09678C20.4109 9.09678 16.2784 10.4315 14.7921 10.4315C13.3421 10.4315 9.24585 9.13286 9.24585 9.13286C8.70209 8.98856 8.08584 9.24108 7.90459 9.78219C7.72334 10.3594 8.04959 10.9726 8.62959 11.1169L13.0884 12.4517C13.3059 12.5238 13.4871 12.7403 13.4509 12.9928C13.4146 13.7143 13.3421 15.2655 13.1971 15.8426C12.8346 17.502 10.8409 22.0474 10.8409 22.0474C10.5871 22.5885 10.8408 23.2018 11.3484 23.4543C11.4934 23.5264 11.6384 23.5625 11.7834 23.5625C12.1821 23.5625 12.5809 23.3461 12.7259 22.9492L14.8646 18.6203L16.8946 22.9853C17.0759 23.3461 17.4384 23.5625 17.8371 23.5625Z" fill="black"/>
<circle cx="14.5" cy="7.25" r="1.8125" fill="black"/>
</svg>
